<?xml version="1.0" encoding="UTF-8"?>
<svg version="1.1" xmlns="http://www.w3.org/2000/svg" width="128" height="128">
<path d="M0 0 C42.24 0 84.48 0 128 0 C128 42.24 128 84.48 128 128 C85.76 128 43.52 128 0 128 C0 85.76 0 43.52 0 0 Z " fill="#2E1547" transform="translate(0,0)"/>
<path d="M0 0 C1.83203125 -0.15209961 1.83203125 -0.15209961 4.765625 0.32055664 C6.8828125 2.63696289 6.8828125 2.63696289 8.640625 5.88305664 C9.30401439 7.06963113 9.96810676 8.2558128 10.6328125 9.44165039 C11.14473145 10.38500244 11.14473145 10.38500244 11.66699219 11.34741211 C12.81465142 13.40860808 14.0301152 15.41339135 15.2734375 17.41821289 C15.68867676 18.08973389 16.10391602 18.76125488 16.53173828 19.453125 C17.34335253 20.76368769 18.15677974 22.07312967 18.97216797 23.38134766 C21.765625 27.9834602 21.765625 27.9834602 21.765625 31.32055664 C18.795625 31.98055664 15.825625 32.64055664 12.765625 33.32055664 C13.755625 35.30055664 13.755625 35.30055664 14.765625 37.32055664 C14.765625 38.64055664 14.765625 39.96055664 14.765625 41.32055664 C15.755625 40.99055664 16.745625 40.66055664 17.765625 40.32055664 C17.765625 38.67055664 17.765625 37.02055664 17.765625 35.32055664 C21.230625 34.82555664 21.230625 34.82555664 24.765625 34.32055664 C27.765625 37.94555664 27.765625 37.94555664 27.765625 41.32055664 C31.395625 41.32055664 35.025625 41.32055664 38.765625 41.32055664 C38.765625 42.64055664 38.765625 43.96055664 38.765625 45.32055664 C33.815625 45.81555664 33.815625 45.81555664 28.765625 46.32055664 C28.435625 47.64055664 28.105625 48.96055664 27.765625 50.32055664 C28.46429688 50.36954102 29.16296875 50.41852539 29.8828125 50.46899414 C30.79289062 50.54375977 31.70296875 50.61852539 32.640625 50.69555664 C33.54554687 50.76516602 34.45046875 50.83477539 35.3828125 50.90649414 C37.765625 51.32055664 37.765625 51.32055664 39.765625 53.32055664 C40.06640625 55.37915039 40.06640625 55.37915039 40.078125 57.75805664 C40.09488281 58.54051758 40.11164063 59.32297852 40.12890625 60.12915039 C39.765625 62.32055664 39.765625 62.32055664 38.6640625 64.09399414 C35.81453215 65.93504873 33.42586353 65.60749442 30.078125 65.50805664 C28.30888672 65.46745117 28.30888672 65.46745117 26.50390625 65.42602539 C25.60027344 65.3912207 24.69664063 65.35641602 23.765625 65.32055664 C23.765625 64.00055664 23.765625 62.68055664 23.765625 61.32055664 C28.715625 60.82555664 28.715625 60.82555664 33.765625 60.32055664 C34.095625 59.00055664 34.425625 57.68055664 34.765625 56.32055664 C33.115625 56.32055664 31.465625 56.32055664 29.765625 56.32055664 C29.435625 57.31055664 29.105625 58.30055664 28.765625 59.32055664 C26.785625 59.32055664 24.805625 59.32055664 22.765625 59.32055664 C22.765625 61.63055664 22.765625 63.94055664 22.765625 66.32055664 C23.755625 66.32055664 24.745625 66.32055664 25.765625 66.32055664 C25.765625 67.97055664 25.765625 69.62055664 25.765625 71.32055664 C23.785625 71.32055664 21.805625 71.32055664 19.765625 71.32055664 C18.00099817 68.23245969 17.765625 67.08743528 17.765625 63.32055664 C17.105625 63.98055664 16.445625 64.64055664 15.765625 65.32055664 C13.7421875 65.52368164 13.7421875 65.52368164 11.390625 65.57055664 C7.44580185 65.91303325 7.03183551 66.01441455 4.265625 69.19555664 C2.72024871 72.24762198 2.72024871 72.24762198 1.765625 75.32055664 C-0.874375 75.32055664 -3.514375 75.32055664 -6.234375 75.32055664 C-5.97395833 73.30232747 -5.71354167 71.28409831 -5.453125 69.26586914 C-5.1971265 67.3155732 -5.1971265 67.3155732 -5.234375 65.32055664 C-6.224375 64.82555664 -6.224375 64.82555664 -7.234375 64.32055664 C-7.38132813 65.16360352 -7.52828125 66.00665039 -7.6796875 66.87524414 C-8.34702868 70.13524417 -9.07650926 73.19954261 -10.234375 76.32055664 C-12.984375 78.00805664 -12.984375 78.00805664 -16.234375 78.32055664 C-17.843125 78.62993164 -17.843125 78.62993164 -19.484375 78.94555664 C-20.721875 79.06930664 -21.959375 79.19305664 -23.234375 79.32055664 C-24.04519531 79.4559082 -24.85601562 79.59125977 -25.69140625 79.73071289 C-28.50928477 80.03066698 -30.50651046 80.12313497 -33.234375 79.32055664 C-35.27425093 76.87618506 -36.55765287 74.49586164 -37.8828125 71.60571289 C-39.01661168 69.14494408 -39.01661168 69.14494408 -41.3984375 68.50415039 C-42.00429688 68.44356445 -42.61015625 68.38297852 -43.234375 68.32055664 C-43.564375 68.98055664 -43.894375 69.64055664 -44.234375 70.32055664 C-43.574375 70.32055664 -42.914375 70.32055664 -42.234375 70.32055664 C-38.43232716 74.8445123 -35.66682474 79.42236468 -36.171875 85.44555664 C-36.96124582 89.98085079 -38.43411103 94.09384992 -40.234375 98.32055664 C-43.50172439 95.32163354 -45.61548874 92.26783471 -47.80078125 88.41821289 C-48.45111328 87.28061523 -49.10144531 86.14301758 -49.77148438 84.97094727 C-50.44681649 83.77509773 -51.12194495 82.57913315 -51.796875 81.38305664 C-52.47530737 80.19065544 -53.15433856 78.99859474 -53.83398438 77.80688477 C-55.08587603 75.61016923 -56.33496776 73.41185392 -57.58032227 71.21142578 C-58.65562127 69.33207295 -59.77300286 67.47597271 -60.93725586 65.65039062 C-62.56310818 62.73009914 -62.46388583 60.61021182 -62.234375 57.32055664 C-61.574375 57.32055664 -60.914375 57.32055664 -60.234375 57.32055664 C-60.234375 56.66055664 -60.234375 56.00055664 -60.234375 55.32055664 C-61.224375 55.32055664 -62.214375 55.32055664 -63.234375 55.32055664 C-63.234375 58.62055664 -63.234375 61.92055664 -63.234375 65.32055664 C-64.884375 65.32055664 -66.534375 65.32055664 -68.234375 65.32055664 C-68.234375 57.40055664 -68.234375 49.48055664 -68.234375 41.32055664 C-66.584375 41.32055664 -64.934375 41.32055664 -63.234375 41.32055664 C-63.234375 44.62055664 -63.234375 47.92055664 -63.234375 51.32055664 C-60.30237026 48.46779527 -57.59122096 45.6697588 -55.234375 42.32055664 C-55.74226563 41.7649707 -56.25015625 41.20938477 -56.7734375 40.63696289 C-58.62650198 37.6988152 -58.34773287 36.60035661 -57.609375 33.25805664 C-57.403125 32.30157227 -57.196875 31.34508789 -56.984375 30.35961914 C-55.8229765 25.65353564 -54.58505508 20.97590066 -53.234375 16.32055664 C-51.234375 16.32055664 -51.234375 16.32055664 -49.609375 17.82055664 C-49.155625 18.31555664 -48.701875 18.81055664 -48.234375 19.32055664 C-48.234375 15.62154659 -49.56988008 13.58019252 -51.234375 10.32055664 C-51.234375 9.66055664 -51.234375 9.00055664 -51.234375 8.32055664 C-49.02782425 7.8127477 -46.81903895 7.31464299 -44.609375 6.82055664 C-43.37960938 6.54211914 -42.14984375 6.26368164 -40.8828125 5.97680664 C-34.32755862 4.79770316 -34.32755862 4.79770316 -31.234375 5.32055664 C-29.3984375 7.91040039 -29.3984375 7.91040039 -27.859375 11.25805664 C-25.8006963 15.58539477 -25.8006963 15.58539477 -22.1171875 18.26977539 C-19.71761701 18.50880461 -19.71761701 18.50880461 -16.234375 18.32055664 C-15.244375 18.98055664 -14.254375 19.64055664 -13.234375 20.32055664 C-13.729375 22.79555664 -13.729375 22.79555664 -14.234375 25.32055664 C-15.884375 25.32055664 -17.534375 25.32055664 -19.234375 25.32055664 C-18.74239624 26.15248535 -18.74239624 26.15248535 -18.24047852 27.0012207 C-16.75408769 29.52131322 -15.27542017 32.04585374 -13.796875 34.57055664 C-13.28060547 35.44325195 -12.76433594 36.31594727 -12.23242188 37.21508789 C-11.73935547 38.05942383 -11.24628906 38.90375977 -10.73828125 39.77368164 C-10.05487671 40.93625488 -10.05487671 40.93625488 -9.35766602 42.12231445 C-8.29450015 44.20289377 -7.69123891 46.03851006 -7.234375 48.32055664 C-5.914375 47.66055664 -4.594375 47.00055664 -3.234375 46.32055664 C-3.894375 45.37180664 -4.554375 44.42305664 -5.234375 43.44555664 C-7.234375 40.32055664 -7.234375 40.32055664 -7.234375 38.32055664 C-4.18045675 38.02115289 -1.27988439 37.89284551 1.765625 38.32055664 C4.390625 40.69555664 4.390625 40.69555664 6.765625 43.32055664 C9.0962534 44.29696728 11.28001509 44.7844447 13.765625 45.32055664 C13.765625 44.00055664 13.765625 42.68055664 13.765625 41.32055664 C13.064375 41.44430664 12.363125 41.56805664 11.640625 41.69555664 C8.765625 41.32055664 8.765625 41.32055664 6.265625 38.32055664 C3.99609559 35.75318873 3.095108 35.34371389 -0.40234375 35.09790039 C-2.70806638 35.20282229 -5.01201864 35.36744822 -7.30859375 35.59790039 C-8.75685547 35.46061523 -8.75685547 35.46061523 -10.234375 35.32055664 C-12.144032 32.93053232 -13.234375 31.41559151 -13.234375 28.32055664 C-12.244375 27.66055664 -11.254375 27.00055664 -10.234375 26.32055664 C-9.48391994 22.9059933 -9.48391994 22.9059933 -10.234375 19.32055664 C-13.36437519 16.49592232 -15.74917155 15.42930914 -19.859375 14.50805664 C-23.44375414 13.2468862 -23.87066462 12.90743663 -25.671875 9.82055664 C-27.234375 6.32055664 -27.234375 6.32055664 -27.234375 4.32055664 C-23.21502319 3.64474835 -19.19368685 2.98155404 -15.171875 2.32055664 C-14.03814453 2.12977539 -12.90441406 1.93899414 -11.73632812 1.74243164 C-7.83101361 1.10482927 -3.91646357 0.56187901 0 0 Z " fill="#D096F8" transform="translate(80.234375,10.679443359375)"/>
<path d="M0 0 C0.66 0 1.32 0 2 0 C2.474375 0.495 2.94875 0.99 3.4375 1.5 C4.99969942 3.34626591 4.99969942 3.34626591 8 3 C9.60986328 5.17138672 9.60986328 5.17138672 11.3203125 8.1796875 C11.93777344 9.25347656 12.55523437 10.32726562 13.19140625 11.43359375 C13.82949219 12.56925781 14.46757813 13.70492187 15.125 14.875 C15.77082031 16.00292969 16.41664062 17.13085938 17.08203125 18.29296875 C21.60714286 26.21428571 21.60714286 26.21428571 23 29 C23.66 26.69 24.32 24.38 25 22 C26.99954746 21.95745644 29.00041636 21.95919217 31 22 C32 23 32 23 32.0625 26.5625 C32.041875 27.696875 32.02125 28.83125 32 30 C33.093125 29.938125 34.18625 29.87625 35.3125 29.8125 C39 30 39 30 40.75 31.4375 C41.1625 31.953125 41.575 32.46875 42 33 C42.99 33.33 43.98 33.66 45 34 C46.17105006 42.62062152 46.97407942 51.96676912 43 60 C38.79301428 61.90919432 34.58245254 62.54175475 30 63 C28.78376953 63.20302734 28.78376953 63.20302734 27.54296875 63.41015625 C24.72509023 63.71011034 22.72786454 63.80257833 20 63 C17.96012407 60.55562842 16.67672213 58.175305 15.3515625 55.28515625 C14.21776332 52.82438744 14.21776332 52.82438744 11.8359375 52.18359375 C10.92714844 52.09271484 10.92714844 52.09271484 10 52 C9.67 52.66 9.34 53.32 9 54 C9.66 54 10.32 54 11 54 C14.80204784 58.52395566 17.56755026 63.10180804 17.0625 69.125 C16.27312918 73.66029415 14.80026397 77.77329328 13 82 C9.73265061 79.0010769 7.61888626 75.94727807 5.43359375 72.09765625 C4.78326172 70.96005859 4.13292969 69.82246094 3.46289062 68.65039062 C2.78755851 67.45454109 2.11243005 66.25857651 1.4375 65.0625 C0.75906763 63.8700988 0.08003644 62.6780381 -0.59960938 61.48632812 C-1.85150103 59.28961259 -3.10059276 57.09129728 -4.34594727 54.89086914 C-5.42124627 53.01151631 -6.53862786 51.15541607 -7.70288086 49.32983398 C-9.32873318 46.4095425 -9.22951083 44.28965517 -9 41 C-8.34 41 -7.68 41 -7 41 C-7 40.34 -7 39.68 -7 39 C-7.99 39 -8.98 39 -10 39 C-10 42.3 -10 45.6 -10 49 C-11.65 49 -13.3 49 -15 49 C-15 41.08 -15 33.16 -15 25 C-13.35 25 -11.7 25 -10 25 C-10 28.3 -10 31.6 -10 35 C-7.06799526 32.14723863 -4.35684596 29.34920216 -2 26 C-2.50789063 25.44441406 -3.01578125 24.88882813 -3.5390625 24.31640625 C-5.39212698 21.37825856 -5.11335787 20.27979997 -4.375 16.9375 C-4.16875 15.98101562 -3.9625 15.02453125 -3.75 14.0390625 C-2.5886015 9.332979 -1.35068008 4.65534402 0 0 Z " fill="#CD93F5" transform="translate(27,27)"/>
<path d="M0 0 C2.875 0.3125 2.875 0.3125 3.875 1.3125 C3.91592937 3.64547433 3.91741723 5.97955225 3.875 8.3125 C8.33 7.8175 8.33 7.8175 12.875 7.3125 C12.25351697 10.02168332 11.62793439 12.72981127 11 15.4375 C10.82597656 16.19804688 10.65195313 16.95859375 10.47265625 17.7421875 C10.12351412 19.24220555 9.7594279 20.73883019 9.37988281 22.23144531 C8.93862782 24.05023523 8.61168658 25.89598754 8.3046875 27.7421875 C6.875 30.3125 6.875 30.3125 5.12203979 30.94799805 C4.39453522 31.09019775 3.66703064 31.23239746 2.91748047 31.37890625 C2.10469635 31.53890106 1.29191223 31.69889587 0.45449829 31.86373901 C-3.76517879 32.59784551 -7.99145318 33.23625772 -12.234375 33.8203125 C-13.62913055 34.01583206 -13.62913055 34.01583206 -15.05206299 34.21530151 C-17.00141967 34.48760528 -18.95102981 34.75810035 -20.90087891 35.02685547 C-23.88130093 35.43836999 -26.86058843 35.85747501 -29.83984375 36.27734375 C-31.74212449 36.54211974 -33.64446622 36.80645802 -35.546875 37.0703125 C-36.43340759 37.19528107 -37.31994019 37.32024963 -38.2333374 37.44900513 C-42.22594809 37.99483247 -46.08339799 38.47752689 -50.125 38.3125 C-49.50527718 35.41544624 -48.87943301 32.51994545 -48.25 29.625 C-48.07597656 28.80837891 -47.90195312 27.99175781 -47.72265625 27.15039062 C-47.54863281 26.35439453 -47.37460937 25.55839844 -47.1953125 24.73828125 C-47.03820801 24.01036377 -46.88110352 23.28244629 -46.71923828 22.5324707 C-45.40619908 17.62718496 -45.40619908 17.62718496 -44.125 15.3125 C-41.68579102 14.39355469 -41.68579102 14.39355469 -38.62890625 13.984375 C-36.95344727 13.74460937 -36.95344727 13.74460937 -35.24414062 13.5 C-34.07044922 13.355625 -32.89675781 13.21125 -31.6875 13.0625 C-30.54861328 12.90265625 -29.40972656 12.7428125 -28.23632812 12.578125 C-21.21676904 11.6159924 -14.18616366 10.8879004 -7.125 10.3125 C-7.021875 9.405 -6.91875 8.4975 -6.8125 7.5625 C-5.81315787 2.8383372 -5.05586769 0.50558677 0 0 Z " fill="#CF95F7" transform="translate(92.125,78.6875)"/>
<path d="M0 0 C2.28027344 -0.32373047 2.28027344 -0.32373047 5 0 C6.83691406 2.17138672 6.83691406 2.17138672 8.515625 5.1796875 C9.12664063 6.25347656 9.73765625 7.32726563 10.3671875 8.43359375 C10.98851563 9.56925781 11.60984375 10.70492187 12.25 11.875 C12.88679688 13.00292969 13.52359375 14.13085938 14.1796875 15.29296875 C18.35863095 22.7172619 18.35863095 22.7172619 20 26 C20.99 22.535 20.99 22.535 22 19 C23.99954746 18.95745644 26.00041636 18.95919217 28 19 C29 20 29 20 29.0625 23.5625 C29.041875 24.696875 29.02125 25.83125 29 27 C30.093125 26.938125 31.18625 26.87625 32.3125 26.8125 C36 27 36 27 37.75 28.4375 C38.1625 28.953125 38.575 29.46875 39 30 C39.99 30.33 40.98 30.66 42 31 C43.17105006 39.62062152 43.97407942 48.96676912 40 57 C35.79301428 58.90919432 31.58245254 59.54175475 27 60 C25.78376953 60.20302734 25.78376953 60.20302734 24.54296875 60.41015625 C21.72509023 60.71011034 19.72786454 60.80257833 17 60 C14.96012407 57.55562842 13.67672213 55.175305 12.3515625 52.28515625 C11.21776332 49.82438744 11.21776332 49.82438744 8.8359375 49.18359375 C7.92714844 49.09271484 7.92714844 49.09271484 7 49 C6.67 49.66 6.34 50.32 6 51 C3.125 51.1875 3.125 51.1875 0 51 C-0.66 50.01 -1.32 49.02 -2 48 C-2.99 47.566875 -2.99 47.566875 -4 47.125 C-6.71440441 45.59814752 -7.08583347 43.89486068 -8 41 C-7.1646875 41.9590625 -7.1646875 41.9590625 -6.3125 42.9375 C-3.77933439 45.19680987 -2.31658576 45.63149047 1 46 C0.67 44.68 0.34 43.36 0 42 C0.33 42 0.66 42 1 42 C1.33 37.38 1.66 32.76 2 28 C2.33 28 2.66 28 3 28 C3.33 33.28 3.66 38.56 4 44 C10.40371521 45.4472136 10.40371521 45.4472136 14 44 C14 44.66 14 45.32 14 46 C15.32 46 16.64 46 18 46 C18 40.06 18 34.12 18 28 C17.34 28 16.68 28 16 28 C13.88134239 24.33424729 11.76344032 20.66805947 9.64624023 17.00146484 C8.92574531 15.75394874 8.20504332 14.5065522 7.48413086 13.25927734 C6.44851209 11.46743592 5.41363643 9.67516716 4.37890625 7.8828125 C3.7557251 6.80402832 3.13254395 5.72524414 2.49047852 4.61376953 C1.62474776 3.0955855 0.78158461 1.56316922 0 0 Z " fill="#401D63" transform="translate(30,30)"/>
<path d="M0 0 C1.8359375 2.58984375 1.8359375 2.58984375 3.375 5.9375 C5.4336787 10.26483813 5.4336787 10.26483813 9.1171875 12.94921875 C11.51675799 13.18824797 11.51675799 13.18824797 15 13 C15.99 13.66 16.98 14.32 18 15 C17.505 17.475 17.505 17.475 17 20 C15.35 20 13.7 20 12 20 C12.32274902 20.54938232 12.64549805 21.09876465 12.97802734 21.66479492 C14.44724994 24.17029228 15.91116443 26.67885179 17.375 29.1875 C18.13683594 30.48397461 18.13683594 30.48397461 18.9140625 31.80664062 C19.40390625 32.64775391 19.89375 33.48886719 20.3984375 34.35546875 C20.84880371 35.12528076 21.29916992 35.89509277 21.76318359 36.68823242 C23.03780891 39.07066968 24.04315513 41.4751012 25 44 C22.6875 44.6875 22.6875 44.6875 20 45 C19 44 18 43 17 42 C13.38976901 41.26958147 13.38976901 41.26958147 10 41 C9.67 38.69 9.34 36.38 9 34 C7.02 34 5.04 34 3 34 C2.67 36.31 2.34 38.62 2 41 C-0.86384753 38.45653352 -2.54295854 35.57845158 -4.43359375 32.265625 C-5.08263672 31.13382813 -5.73167969 30.00203125 -6.40039062 28.8359375 C-7.07953902 27.6406886 -7.75857465 26.44537561 -8.4375 25.25 C-9.11219055 24.07006099 -9.78731665 22.89037093 -10.46289062 21.7109375 C-11.74918874 19.46214675 -13.03237432 17.21157196 -14.31201172 14.95898438 C-15.68056367 12.55996071 -17.07218663 10.17724168 -18.47265625 7.796875 C-20 5 -20 5 -20 3 C-17.79344925 2.49219106 -15.58466395 1.99408635 -13.375 1.5 C-11.53035156 1.08234375 -11.53035156 1.08234375 -9.6484375 0.65625 C-3.09318362 -0.52285348 -3.09318362 -0.52285348 0 0 Z " fill="#D196F9" transform="translate(49,16)"/>
<path d="M0 0 C1.65 0 3.3 0 5 0 C5 3.3 5 6.6 5 10 C8.53260871 6.60365442 8.53260871 6.60365442 11.4375 2.6875 C13 1 13 1 16.1875 0.75 C17.115625 0.8325 18.04375 0.915 19 1 C18.55527344 1.60328125 18.11054688 2.2065625 17.65234375 2.828125 C17.08644531 3.62734375 16.52054688 4.4265625 15.9375 5.25 C15.36902344 6.03890625 14.80054688 6.8278125 14.21484375 7.640625 C12.81017686 9.86202693 12.81017686 9.86202693 13.15625 12.0390625 C14.10283271 14.23899084 15.23320986 16.13295837 16.5625 18.125 C19 21.78470255 19 21.78470255 19 24 C16.625 24.125 16.625 24.125 14 24 C13.34 23.34 12.68 22.68 12 22 C12.83333333 24.16666667 12.83333333 24.16666667 15 25 C17 26 17 26 18 28 C19.216875 28 20.43375 28 21.6875 28 C24.69368164 28.30930028 25.75151466 28.74691308 27.8984375 30.93359375 C31.41977128 36.23212651 32.72773311 40.30293342 31.6328125 46.59375 C30.68242539 50.20756765 29.46488871 53.56069608 28 57 C24.73265061 54.0010769 22.61888626 50.94727807 20.43359375 47.09765625 C19.78326172 45.96005859 19.13292969 44.82246094 18.46289062 43.65039062 C17.78755851 42.45454109 17.11243005 41.25857651 16.4375 40.0625 C15.75906763 38.8700988 15.08003644 37.6780381 14.40039062 36.48632812 C13.14849897 34.28961259 11.89940724 32.09129728 10.65405273 29.89086914 C9.57875373 28.01151631 8.46137214 26.15541607 7.29711914 24.32983398 C5.67126682 21.4095425 5.77048917 19.28965517 6 16 C6.66 16 7.32 16 8 16 C8 15.34 8 14.68 8 14 C7.01 14 6.02 14 5 14 C5 17.3 5 20.6 5 24 C3.35 24 1.7 24 0 24 C0 16.08 0 8.16 0 0 Z " fill="#CB91F2" transform="translate(12,52)"/>
<path d="M0 0 C2 3 2 3 2 6 C5.63 6 9.26 6 13 6 C13 7.32 13 8.64 13 10 C9.7 10.33 6.4 10.66 3 11 C2.67 12.32 2.34 13.64 2 15 C2.69867188 15.04898438 3.39734375 15.09796875 4.1171875 15.1484375 C5.02726562 15.22320312 5.93734375 15.29796875 6.875 15.375 C7.77992187 15.44460937 8.68484375 15.51421875 9.6171875 15.5859375 C12 16 12 16 14 18 C14.30078125 20.05859375 14.30078125 20.05859375 14.3125 22.4375 C14.32925781 23.21996094 14.34601563 24.00242187 14.36328125 24.80859375 C14 27 14 27 12.8984375 28.7734375 C10.04890715 30.61449209 7.66023853 30.28693778 4.3125 30.1875 C3.13300781 30.16042969 1.95351562 30.13335937 0.73828125 30.10546875 C-0.16535156 30.07066406 -1.06898437 30.03585938 -2 30 C-2 28.68 -2 27.36 -2 26 C1.3 25.67 4.6 25.34 8 25 C8.33 23.68 8.66 22.36 9 21 C7.35 21 5.7 21 4 21 C3.67 21.99 3.34 22.98 3 24 C1.02 24 -0.96 24 -3 24 C-3 26.31 -3 28.62 -3 31 C-2.01 31 -1.02 31 0 31 C0 32.65 0 34.3 0 36 C-1.98 36 -3.96 36 -6 36 C-8.39954544 32.26368357 -8.22993687 28.97204502 -8.1953125 24.609375 C-8.1924826 23.90476135 -8.18965271 23.20014771 -8.18673706 22.47418213 C-8.17557801 20.2326124 -8.15048193 17.99144814 -8.125 15.75 C-8.11496464 14.22656829 -8.10583976 12.70313029 -8.09765625 11.1796875 C-8.07565291 7.45299414 -8.04115272 3.72653667 -8 0 C-4.92014945 -0.85050266 -3.03401764 -1.21360705 0 0 Z " fill="#8760A3" transform="translate(106,46)"/>
<path d="M0 0 C3.05399031 -0.29941081 5.95383181 -0.42193546 9 0 C11.6875 2.3125 11.6875 2.3125 14 5 C17.16645474 6.79320824 17.16645474 6.79320824 20 8 C20 12.29 20 16.58 20 21 C18.35 21 16.7 21 15 21 C14.67 17.7 14.34 14.4 14 11 C13.67 11 13.34 11 13 11 C13.33 11.66 13.66 12.32 14 13 C14.039992 14.99960012 14.04346799 17.00047242 14 19 C10.37 19 6.74 19 3 19 C3.33 19.99 3.66 20.98 4 22 C6.97 22.33 9.94 22.66 13 23 C12.67 24.32 12.34 25.64 12 27 C10.39667209 27.08121924 8.79215974 27.13929134 7.1875 27.1875 C5.84751953 27.23970703 5.84751953 27.23970703 4.48046875 27.29296875 C2 27 2 27 0.20703125 25.859375 C-2.39775215 21.8468284 -1.70411382 16.55787966 -1 12 C1.5 9.25 1.5 9.25 4 8 C3.01 6.576875 3.01 6.576875 2 5.125 C0 2 0 2 0 0 Z " fill="#F5F5F5" transform="translate(73,49)"/>
<path d="M0 0 C0.33 0 0.66 0 1 0 C1.33 3.3 1.66 6.6 2 10 C4.27024968 10.08097324 6.54132075 10.13917704 8.8125 10.1875 C10.70935547 10.23970703 10.70935547 10.23970703 12.64453125 10.29296875 C15.96112588 10.3238516 15.96112588 10.3238516 17.82421875 8.48828125 C18.21222656 7.99714844 18.60023437 7.50601563 19 7 C19.66 7 20.32 7 21 7 C21.05459773 8.56210161 21.09306101 10.12477089 21.125 11.6875 C21.14820312 12.55761719 21.17140625 13.42773438 21.1953125 14.32421875 C20.97254046 17.37619567 20.56811292 19.35896771 19 22 C15.14462643 23.44576509 11.08328595 23.60595552 7 24 C5.62908203 24.2475 5.62908203 24.2475 4.23046875 24.5 C1.42812692 24.8443738 -0.32467134 24.93475339 -3 24 C-6.15003315 20.54457764 -10 15.87205099 -10 11 C-5.545 10.505 -5.545 10.505 -1 10 C-0.67 6.7 -0.34 3.4 0 0 Z " fill="#CE94F5" transform="translate(50,66)"/>
<path d="M0 0 C2.64 0 5.28 0 8 0 C8.33 1.65 8.66 3.3 9 5 C10.98 5.66 12.96 6.32 15 7 C15 10.96 15 14.92 15 19 C15.99 19 16.98 19 18 19 C18 15.04 18 11.08 18 7 C19.32 6.34 20.64 5.68 22 5 C22 5.66 22 6.32 22 7 C22.66 7 23.32 7 24 7 C24 12.94 24 18.88 24 25 C22.35 24.67 20.7 24.34 19 24 C17.906875 24.2475 16.81375 24.495 15.6875 24.75 C10.55844909 25.09773227 7.84182691 23.25973192 4 20 C1.4375 16.9375 1.4375 16.9375 0 14 C0.40749641 10.82280141 1.66169546 8.78440606 3.5625 6.25 C4.01753906 5.63640625 4.47257812 5.0228125 4.94140625 4.390625 C5.29074219 3.93171875 5.64007813 3.4728125 6 3 C4.02 2.34 2.04 1.68 0 1 C0 0.67 0 0.34 0 0 Z " fill="#B27FD5" transform="translate(24,51)"/>
<path d="M0 0 C1.65 0 3.3 0 5 0 C5.495 1.11375 5.99 2.2275 6.5 3.375 C7.77412511 5.63759227 8.44441648 6.77150323 10.87109375 7.76953125 C12.25350457 8.04914932 13.63910987 8.31339635 15.02734375 8.5625 C18.21347126 9.2691263 19.88757729 10.55751124 22 13 C22.3125 16.75 22.3125 16.75 22 20 C20.02 20.99 20.02 20.99 18 22 C18.495 22.78375 18.99 23.5675 19.5 24.375 C21 27 21 27 21 29 C21.86882812 28.85820313 22.73765625 28.71640625 23.6328125 28.5703125 C32.98085233 27.37828057 32.98085233 27.37828057 36.0234375 29.234375 C37.5 30.875 37.5 30.875 38.7890625 32.5625 C40.0230017 34.29185534 40.0230017 34.29185534 42.875 34.875 C43.57625 34.91625 44.2775 34.9575 45 35 C45 36.32 45 37.64 45 39 C42.06552319 39.34934248 39.85632498 39.51495218 37.265625 37.95703125 C35.625 36.625 35.625 36.625 33 34 C33 33.34 33 32.68 33 32 C30.03 32 27.06 32 24 32 C25.73095462 35.68525591 25.73095462 35.68525591 28 39 C31.12688428 40.05175552 31.12688428 40.05175552 34 40 C34 40.33 34 40.66 34 41 C29.05 41.495 29.05 41.495 24 42 C23.63648437 41.32195313 23.27296875 40.64390625 22.8984375 39.9453125 C19.78896949 34.18881019 16.5654429 28.54718414 13.1015625 22.99609375 C12 21 12 21 12 19 C13.65 18.67 15.3 18.34 17 18 C17.33 16.68 17.66 15.36 18 14 C17.28714844 13.98324219 16.57429688 13.96648438 15.83984375 13.94921875 C11.03392717 13.51584538 8.03157454 13.14775871 4.7109375 9.453125 C0 1.96990741 0 1.96990741 0 0 Z " fill="#411E64" transform="translate(49,17)"/>
<path d="M0 0 C1.60725635 3.21451269 1.05748185 6.43612536 1 10 C2.98 10 4.96 10 7 10 C7 10.99 7 11.98 7 13 C2.545 13.495 2.545 13.495 -2 14 C-2.495 10.535 -2.495 10.535 -3 7 C-5.87364791 6.58253392 -5.87364791 6.58253392 -9 7 C-10.91152184 9.37292366 -11.82610858 11.30443431 -12.5625 14.25 C-12.706875 14.8275 -12.85125 15.405 -13 16 C-15.86511316 17.43255658 -18.65975082 17.56433571 -21.8359375 17.97265625 C-22.5116983 18.06002548 -23.18745911 18.14739471 -23.88369751 18.2374115 C-25.31416738 18.42150351 -26.7448701 18.60379377 -28.17578125 18.78442383 C-30.3600007 19.06060344 -32.54329905 19.34332601 -34.7265625 19.62695312 C-45.44548537 21 -45.44548537 21 -50 21 C-50 20.34 -50 19.68 -50 19 C-47.15418139 17.10278759 -45.99746788 16.65208719 -42.76953125 16.1484375 C-41.96708984 16.01953125 -41.16464844 15.890625 -40.33789062 15.7578125 C-39.50451172 15.63148437 -38.67113281 15.50515625 -37.8125 15.375 C-36.96751953 15.2409375 -36.12253906 15.106875 -35.25195312 14.96875 C-33.16900055 14.63924338 -31.08462573 14.31875011 -29 14 C-28.01 9.71 -27.02 5.42 -26 1 C-21.71 1.66 -17.42 2.32 -13 3 C-13 3.33 -13 3.66 -13 4 C-17.455 4.495 -17.455 4.495 -22 5 C-22.66 7.64 -23.32 10.28 -24 13 C-21.36 13 -18.72 13 -16 13 C-15.9175 12.278125 -15.835 11.55625 -15.75 10.8125 C-14.7842736 7.191026 -13.8018622 5.52167598 -11 3 C-8.64587835 2.5015294 -6.42728968 2.31415034 -4.0234375 2.23828125 C-1.77194265 2.18498023 -1.77194265 2.18498023 0 0 Z " fill="#1B0B33" transform="translate(98,73)"/>
<path d="M0 0 C1.32 0 2.64 0 4 0 C4.33 2.64 4.66 5.28 5 8 C5.33 7.67 5.66 7.34 6 7 C11.32171157 6.53724247 11.32171157 6.53724247 13.671875 8.140625 C15.56019301 10.78427021 15.39865866 12.78242271 15.375 16 C15.38273437 17.051875 15.39046875 18.10375 15.3984375 19.1875 C15 22 15 22 13.66796875 23.859375 C11.12891313 25.5956847 8.99079741 25.25453595 6 25 C5.34 24.67 4.68 24.34 4 24 C2.68 24 1.36 24 0 24 C0 16.08 0 8.16 0 0 Z " fill="#F8F8F8" transform="translate(53,51)"/>
<path d="M0 0 C1.65 0 3.3 0 5 0 C5 3.3 5 6.6 5 10 C8.53260871 6.60365442 8.53260871 6.60365442 11.4375 2.6875 C13 1 13 1 16.1875 0.75 C17.115625 0.8325 18.04375 0.915 19 1 C18.55527344 1.60328125 18.11054688 2.2065625 17.65234375 2.828125 C17.08644531 3.62734375 16.52054688 4.4265625 15.9375 5.25 C15.36902344 6.03890625 14.80054688 6.8278125 14.21484375 7.640625 C12.81017686 9.86202693 12.81017686 9.86202693 13.15625 12.0390625 C14.10283271 14.23899084 15.23320986 16.13295837 16.5625 18.125 C19 21.78470255 19 21.78470255 19 24 C16.70703125 24.2421875 16.70703125 24.2421875 14 24 C12.19921875 22.3203125 12.19921875 22.3203125 10.6875 20.125 C9.91986328 19.04605469 9.91986328 19.04605469 9.13671875 17.9453125 C8 16 8 16 8 14 C7.01 14 6.02 14 5 14 C5 17.3 5 20.6 5 24 C3.35 24 1.7 24 0 24 C0 16.08 0 8.16 0 0 Z " fill="#F0F0F0" transform="translate(12,52)"/>
<path d="M0 0 C1.76923828 0.04060547 1.76923828 0.04060547 3.57421875 0.08203125 C4.47785156 0.11683594 5.38148437 0.15164062 6.3125 0.1875 C6.3125 1.1775 6.3125 2.1675 6.3125 3.1875 C3.0125 3.5175 -0.2875 3.8475 -3.6875 4.1875 C-4.0175 5.5075 -4.3475 6.8275 -4.6875 8.1875 C-3.98882812 8.23648438 -3.29015625 8.28546875 -2.5703125 8.3359375 C-1.66023438 8.41070312 -0.75015625 8.48546875 0.1875 8.5625 C1.09242187 8.63210937 1.99734375 8.70171875 2.9296875 8.7734375 C5.3125 9.1875 5.3125 9.1875 7.3125 11.1875 C7.61328125 13.24609375 7.61328125 13.24609375 7.625 15.625 C7.64175781 16.40746094 7.65851563 17.18992187 7.67578125 17.99609375 C7.3125 20.1875 7.3125 20.1875 6.2109375 21.9609375 C3.36140715 23.80199209 0.97273853 23.47443778 -2.375 23.375 C-4.14423828 23.33439453 -4.14423828 23.33439453 -5.94921875 23.29296875 C-6.85285156 23.25816406 -7.75648437 23.22335938 -8.6875 23.1875 C-8.6875 21.8675 -8.6875 20.5475 -8.6875 19.1875 C-5.3875 18.8575 -2.0875 18.5275 1.3125 18.1875 C1.6425 16.8675 1.9725 15.5475 2.3125 14.1875 C1.61382812 14.06632812 0.91515625 13.94515625 0.1953125 13.8203125 C-0.71476562 13.65273437 -1.62484375 13.48515625 -2.5625 13.3125 C-3.46742187 13.15007812 -4.37234375 12.98765625 -5.3046875 12.8203125 C-7.6875 12.1875 -7.6875 12.1875 -9.6875 10.1875 C-10.24512712 4.05360169 -10.24512712 4.05360169 -8.5859375 1.4765625 C-5.74567753 -0.45200909 -3.38462405 -0.10053339 0 0 Z " fill="#F2F2F2" transform="translate(112.6875,52.8125)"/>
<path d="M0 0 C0.66 0 1.32 0 2 0 C2 4.95 2 9.9 2 15 C0.35 15.33 -1.3 15.66 -3 16 C-3 16.99 -3 17.98 -3 19 C-0.69 19 1.62 19 4 19 C4 19.33 4 19.66 4 20 C3.09507813 20.00386719 3.09507813 20.00386719 2.171875 20.0078125 C-0.33943426 20.12932746 -2.56914909 20.34618493 -5 21 C-7.57941627 23.96632872 -8.76542777 26.29628331 -10 30 C-12.64 30 -15.28 30 -18 30 C-17.125 22.125 -17.125 22.125 -16 21 C-14.48071962 20.92820036 -12.95832518 20.91607993 -11.4375 20.9375 C-10.61121094 20.94652344 -9.78492187 20.95554687 -8.93359375 20.96484375 C-7.97646484 20.98224609 -7.97646484 20.98224609 -7 21 C-6.67 19.35 -6.34 17.7 -6 16 C-8.97 16 -11.94 16 -15 16 C-15.33 14.68 -15.66 13.36 -16 12 C-12.37 12 -8.74 12 -5 12 C-5.309375 10.72125 -5.61875 9.4425 -5.9375 8.125 C-6.11152344 7.40570313 -6.28554687 6.68640625 -6.46484375 5.9453125 C-6.94846992 3.9414343 -6.94846992 3.9414343 -8 2 C-6.68 2.66 -5.36 3.32 -4 4 C-4 7.3 -4 10.6 -4 14 C-2.35 14 -0.7 14 1 14 C0.67 9.38 0.34 4.76 0 0 Z " fill="#665474" transform="translate(92,56)"/>
<path d="M0 0 C3 0.125 3 0.125 4 1.125 C4.04092937 3.45797433 4.04241723 5.79205225 4 8.125 C5.093125 8.063125 6.18625 8.00125 7.3125 7.9375 C11 8.125 11 8.125 12.75 9.5625 C13.1625 10.078125 13.575 10.59375 14 11.125 C14.99 11.455 15.98 11.785 17 12.125 C17.1968121 14.16579005 17.38202831 16.20770007 17.5625 18.25 C17.66691406 19.38695313 17.77132812 20.52390625 17.87890625 21.6953125 C17.99608016 25.01397993 17.6655072 27.8812686 17 31.125 C16.67 31.125 16.34 31.125 16 31.125 C16 28.815 16 26.505 16 24.125 C15.32453125 24.77855469 14.6490625 25.43210937 13.953125 26.10546875 C10.27202453 28.62283508 8.16278181 28.57136054 3.75 28.4375 C2.50734375 28.41300781 1.2646875 28.38851562 -0.015625 28.36328125 C-3 28.125 -3 28.125 -4 27.125 C-4.40182396 21.06218558 -3.88789523 15.11829281 -3 9.125 C-3.66 8.795 -4.32 8.465 -5 8.125 C-3.98705255 0.16612719 -3.98705255 0.16612719 0 0 Z M-2 2.125 C-2 10.045 -2 17.965 -2 26.125 C-0.35 26.125 1.3 26.125 3 26.125 C3.33 26.455 3.66 26.785 4 27.125 C8.05835551 27.54910105 8.05835551 27.54910105 11.671875 25.984375 C13.56019301 23.34072979 13.39865866 21.34257729 13.375 18.125 C13.38273437 17.073125 13.39046875 16.02125 13.3984375 14.9375 C13.22175799 12.13317903 13.22175799 12.13317903 11.671875 10.265625 C9.13658257 8.53593951 6.98012846 8.8658584 4 9.125 C3.67 9.455 3.34 9.785 3 10.125 C2.67 7.485 2.34 4.845 2 2.125 C0.68 2.125 -0.64 2.125 -2 2.125 Z " fill="#4A3559" transform="translate(55,48.875)"/>
<path d="M0 0 C1.32 0 2.64 0 4 0 C4.33 4.29 4.66 8.58 5 13 C6.65 12.67 8.3 12.34 10 12 C10.33 8.04 10.66 4.08 11 0 C12.32 0 13.64 0 15 0 C15 5.94 15 11.88 15 18 C13.35 17.67 11.7 17.34 10 17 C8.80375 17.185625 7.6075 17.37125 6.375 17.5625 C3 18 3 18 0 16 C-0.22107787 13.2114711 -0.28107535 10.65346819 -0.1875 7.875 C-0.17396484 7.12089844 -0.16042969 6.36679688 -0.14648438 5.58984375 C-0.11109985 3.72625873 -0.05729167 1.86304022 0 0 Z " fill="#F4F4F4" transform="translate(33,58)"/>
<path d="M0 0 C3.05399031 -0.29941081 5.95383181 -0.42193546 9 0 C11.6875 2.3125 11.6875 2.3125 14 5 C17.16645474 6.79320824 17.16645474 6.79320824 20 8 C20 12.29 20 16.58 20 21 C18.35 21 16.7 21 15 21 C14.67 17.7 14.34 14.4 14 11 C11.11788698 10.03929566 9.30149956 9.89418117 6.3125 9.9375 C5.50425781 9.94652344 4.69601563 9.95554687 3.86328125 9.96484375 C3.24839844 9.97644531 2.63351563 9.98804688 2 10 C2.66 9.34 3.32 8.68 4 8 C3.01 6.576875 3.01 6.576875 2 5.125 C0 2 0 2 0 0 Z " fill="#C691EA" transform="translate(73,49)"/>
<path d="M0 0 C0.66 0.33 1.32 0.66 2 1 C2 1.66 2 2.32 2 3 C2.86882812 2.85820313 3.73765625 2.71640625 4.6328125 2.5703125 C13.98085233 1.37828057 13.98085233 1.37828057 17.0234375 3.234375 C18.5 4.875 18.5 4.875 19.7890625 6.5625 C21.0230017 8.29185534 21.0230017 8.29185534 23.875 8.875 C24.57625 8.91625 25.2775 8.9575 26 9 C26 10.32 26 11.64 26 13 C23.06552319 13.34934248 20.85632498 13.51495218 18.265625 11.95703125 C16.625 10.625 16.625 10.625 14 8 C14 7.34 14 6.68 14 6 C11.03 6 8.06 6 5 6 C6.73095462 9.68525591 6.73095462 9.68525591 9 13 C12.12688428 14.05175552 12.12688428 14.05175552 15 14 C15 14.33 15 14.66 15 15 C11.7 15.33 8.4 15.66 5 16 C4.01515892 14.25318707 3.03733813 12.5024149 2.0625 10.75 C1.51722656 9.77546875 0.97195312 8.8009375 0.41015625 7.796875 C-0.76610835 5.46389591 -1.52101691 3.54649238 -2 1 C-1.34 0.67 -0.68 0.34 0 0 Z " fill="#2E1649" transform="translate(68,43)"/>
<path d="M0 0 C0.33 0 0.66 0 1 0 C1.33 5.28 1.66 10.56 2 16 C8.40371521 17.4472136 8.40371521 17.4472136 12 16 C12 16.66 12 17.32 12 18 C13.32 18 14.64 18 16 18 C16 12.06 16 6.12 16 0 C16.33 0 16.66 0 17 0 C18.97744412 6.2812931 19.25332612 11.50549194 18 18 C17 19 17 19 14.93359375 19.09765625 C14.10988281 19.08605469 13.28617188 19.07445313 12.4375 19.0625 C11.61121094 19.05347656 10.78492187 19.04445313 9.93359375 19.03515625 C8.97646484 19.01775391 8.97646484 19.01775391 8 19 C7.67 19.66 7.34 20.32 7 21 C6.34 21 5.68 21 5 21 C4.67 21.66 4.34 22.32 4 23 C1.125 23.1875 1.125 23.1875 -2 23 C-2.66 22.01 -3.32 21.02 -4 20 C-4.99 19.566875 -4.99 19.566875 -6 19.125 C-8.71440441 17.59814752 -9.08583347 15.89486068 -10 13 C-9.443125 13.639375 -8.88625 14.27875 -8.3125 14.9375 C-5.77933439 17.19680987 -4.31658576 17.63149047 -1 18 C-1.33 16.68 -1.66 15.36 -2 14 C-1.67 14 -1.34 14 -1 14 C-0.67 9.38 -0.34 4.76 0 0 Z " fill="#2C1742" transform="translate(32,58)"/>
<path d="M0 0 C1.60725635 3.21451269 1.05748185 6.43612536 1 10 C2.98 10 4.96 10 7 10 C7 10.99 7 11.98 7 13 C2.545 13.495 2.545 13.495 -2 14 C-2.33 11.69 -2.66 9.38 -3 7 C-5.87364791 6.58253392 -5.87364791 6.58253392 -9 7 C-11.25057517 9.79381746 -12.34967443 12.48824193 -13 16 C-14.65 16 -16.3 16 -18 16 C-18.33 15.01 -18.66 14.02 -19 13 C-18.01 13 -17.02 13 -16 13 C-15.9175 12.278125 -15.835 11.55625 -15.75 10.8125 C-14.7842736 7.191026 -13.8018622 5.52167598 -11 3 C-8.64587835 2.5015294 -6.42728968 2.31415034 -4.0234375 2.23828125 C-1.77194265 2.18498023 -1.77194265 2.18498023 0 0 Z " fill="#130821" transform="translate(98,73)"/>
<path d="M0 0 C1.65 0 3.3 0 5 0 C5.05790353 3.29159316 5.09356261 6.58305603 5.125 9.875 C5.14175781 10.81214844 5.15851563 11.74929687 5.17578125 12.71484375 C5.18222656 13.61074219 5.18867187 14.50664063 5.1953125 15.4296875 C5.20578613 16.25710449 5.21625977 17.08452148 5.22705078 17.93701172 C5 20 5 20 3 22 C0.31160615 22.26991906 -2.29141936 22.08737357 -5 22 C-5 21.01 -5 20.02 -5 19 C-3.68 18.67 -2.36 18.34 -1 18 C-0.505 9.09 -0.505 9.09 0 0 Z " fill="#F5F5F5" transform="translate(94,53)"/>
<path d="M0 0 C1.37478516 0.01740234 1.37478516 0.01740234 2.77734375 0.03515625 C3.69644531 0.04417969 4.61554688 0.05320312 5.5625 0.0625 C6.27277344 0.07410156 6.98304687 0.08570312 7.71484375 0.09765625 C6.39484375 3.06765625 5.07484375 6.03765625 3.71484375 9.09765625 C1.07484375 9.09765625 -1.56515625 9.09765625 -4.28515625 9.09765625 C-3.28992724 0.14059518 -3.28992724 0.14059518 0 0 Z " fill="#C68EEC" transform="translate(78.28515625,76.90234375)"/>
<path d="M0 0 C2 3 2 3 2 6 C5.63 6 9.26 6 13 6 C13 6.33 13 6.66 13 7 C12.11957031 7.06058594 11.23914063 7.12117188 10.33203125 7.18359375 C8.58986328 7.30927734 8.58986328 7.30927734 6.8125 7.4375 C5.66394531 7.51871094 4.51539062 7.59992187 3.33203125 7.68359375 C0.48401829 7.95403812 -2.21210482 8.37521747 -5 9 C-5 7.68 -5 6.36 -5 5 C-5.99 5 -6.98 5 -8 5 C-8 3.35 -8 1.7 -8 0 C-4.97786398 -0.97140086 -2.9812093 -1.19248372 0 0 Z " fill="#BC8FDB" transform="translate(106,46)"/>
<path d="M0 0 C3 0.125 3 0.125 4 1.125 C4.35897436 7.58653846 4.35897436 7.58653846 2 11.125 C2 8.155 2 5.185 2 2.125 C0.68 2.125 -0.64 2.125 -2 2.125 C-2 10.045 -2 17.965 -2 26.125 C-0.68 26.455 0.64 26.785 2 27.125 C0.34385343 27.50718767 -1.32457024 27.83895102 -3 28.125 C-4 27.125 -4 27.125 -4.1328125 25.12109375 C-4.11624524 19.69531481 -3.79527078 14.49307773 -3 9.125 C-3.66 8.795 -4.32 8.465 -5 8.125 C-3.98705255 0.16612719 -3.98705255 0.16612719 0 0 Z " fill="#897597" transform="translate(55,48.875)"/>
<path d="M0 0 C4.29 0.66 8.58 1.32 13 2 C13 2.33 13 2.66 13 3 C8.545 3.495 8.545 3.495 4 4 C3.34 6.64 2.68 9.28 2 12 C3.11375 12.103125 4.2275 12.20625 5.375 12.3125 C7.169375 12.6528125 7.169375 12.6528125 9 13 C9.99 14.485 9.99 14.485 11 16 C6.55058414 16.39259552 3.77653532 15.3498442 0 13 C-1.59120505 10.65612971 -2.04947614 9.4819934 -1.7578125 6.640625 C-1.171875 4.42708333 -0.5859375 2.21354167 0 0 Z " fill="#241139" transform="translate(72,74)"/>
<path d="M0 0 C0.33 0.66 0.66 1.32 1 2 C0.34 2 -0.32 2 -1 2 C-0.97679687 2.84304687 -0.95359375 3.68609375 -0.9296875 4.5546875 C-0.90261719 6.19824219 -0.90261719 6.19824219 -0.875 7.875 C-0.85179687 8.96554688 -0.82859375 10.05609375 -0.8046875 11.1796875 C-1 14 -1 14 -3 16 C-4.65 15.67 -6.3 15.34 -8 15 C-8 10.71 -8 6.42 -8 2 C-9.32 1.67 -10.64 1.34 -12 1 C-10.33388095 0.957279 -8.66617115 0.95936168 -7 1 C-6 2 -6 2 -5.90234375 4.72265625 C-5.91394531 5.82480469 -5.92554688 6.92695312 -5.9375 8.0625 C-5.94652344 9.16722656 -5.95554687 10.27195312 -5.96484375 11.41015625 C-5.97644531 12.26480469 -5.98804688 13.11945313 -6 14 C-5.01 14 -4.02 14 -3 14 C-3.05220703 12.73542969 -3.05220703 12.73542969 -3.10546875 11.4453125 C-3.13253906 10.34960938 -3.15960938 9.25390625 -3.1875 8.125 C-3.22230469 7.03445312 -3.25710937 5.94390625 -3.29296875 4.8203125 C-3.19628906 3.88960937 -3.09960938 2.95890625 -3 2 C-2.01 1.34 -1.02 0.68 0 0 Z " fill="#80698E" transform="translate(45,56)"/>
<path d="M0 0 C2.5 0.125 2.5 0.125 3.5 1.125 C3.6328125 2.9375 3.6328125 2.9375 3.625 5.125 C3.62757812 5.846875 3.63015625 6.56875 3.6328125 7.3125 C3.5 9.125 3.5 9.125 2.5 10.125 C0.83382885 10.16563832 -0.83388095 10.167721 -2.5 10.125 C-3.99106457 7.14287087 -3.61941467 4.40890342 -3.5 1.125 C-2.5 0.125 -2.5 0.125 0 0 Z " fill="#8D769E" transform="translate(60.5,61.875)"/>
<path d="M0 0 C2.7058597 0.67646492 4.51516936 1.35717343 6.22265625 3.62109375 C9 8.40927419 9 8.40927419 9 11 C9.66 11 10.32 11 11 11 C11 13.64 11 16.28 11 19 C9.5 17.8125 9.5 17.8125 8 16 C7.8125 13.3125 7.8125 13.3125 8 11 C7.01 11 6.02 11 5 11 C4.16151196 9.54462432 3.32936066 8.08559627 2.5 6.625 C1.80390625 5.40683594 1.80390625 5.40683594 1.09375 4.1640625 C0 2 0 2 0 0 Z " fill="#351654" transform="translate(41,47)"/>
<path d="M0 0 C0 1.65 0 3.3 0 5 C-1.98 5.99 -1.98 5.99 -4 7 C-3.34 8.32 -2.68 9.64 -2 11 C-2.66 11.66 -3.32 12.32 -4 13 C-4.66 13 -5.32 13 -6 13 C-10 6.25 -10 6.25 -10 4 C-7.69 4 -5.38 4 -3 4 C-3 3.01 -3 2.02 -3 1 C-1 0 -1 0 0 0 Z " fill="#361955" transform="translate(71,32)"/>
<path d="M0 0 C1.32 0.66 2.64 1.32 4 2 C4 5.3 4 8.6 4 12 C4.66 12.33 5.32 12.66 6 13 C2.6888987 14.10370043 0.75251051 13.92673641 -2.6875 13.5625 C-4.17830078 13.40974609 -4.17830078 13.40974609 -5.69921875 13.25390625 C-6.45847656 13.17011719 -7.21773438 13.08632812 -8 13 C-8 12.01 -8 11.02 -8 10 C-4.37 10 -0.74 10 3 10 C2.690625 8.72125 2.38125 7.4425 2.0625 6.125 C1.88847656 5.40570313 1.71445313 4.68640625 1.53515625 3.9453125 C1.05153008 1.9414343 1.05153008 1.9414343 0 0 Z " fill="#7F6292" transform="translate(84,58)"/>
<path d="M0 0 C1.65 0 3.3 0 5 0 C4.67 1.65 4.34 3.3 4 5 C0.7 5 -2.6 5 -6 5 C-6 6.32 -6 7.64 -6 9 C-5.01 9 -4.02 9 -3 9 C-3.33 10.32 -3.66 11.64 -4 13 C-4 12.01 -4 11.02 -4 10 C-4.99 10 -5.98 10 -7 10 C-7 7.69 -7 5.38 -7 3 C-5.5459375 2.814375 -5.5459375 2.814375 -4.0625 2.625 C-2.5465625 2.315625 -2.5465625 2.315625 -1 2 C-0.67 1.34 -0.34 0.68 0 0 Z " fill="#7A6588" transform="translate(110,67)"/>
<path d="M0 0 C3.77545388 1.09068668 6.47043472 1.9083091 9 5 C8.67 5.99 8.34 6.98 8 8 C7.34 8 6.68 8 6 8 C6 8.99 6 9.98 6 11 C5.34 10.67 4.68 10.34 4 10 C4.33 8.68 4.66 7.36 5 6 C1.37 5.34 -2.26 4.68 -6 4 C-6 3.67 -6 3.34 -6 3 C-4.02 3 -2.04 3 0 3 C0 2.01 0 1.02 0 0 Z " fill="#442464" transform="translate(62,25)"/>
<path d="M0 0 C0.33 0 0.66 0 1 0 C2.97744412 6.2812931 3.25332612 11.50549194 2 18 C1 19 1 19 -1.06640625 19.09765625 C-1.89011719 19.08605469 -2.71382812 19.07445313 -3.5625 19.0625 C-4.38878906 19.05347656 -5.21507812 19.04445313 -6.06640625 19.03515625 C-7.02353516 19.01775391 -7.02353516 19.01775391 -8 19 C-7.01 18.01 -6.02 17.02 -5 16 C-4.67 16.66 -4.34 17.32 -4 18 C-2.68 18 -1.36 18 0 18 C0 12.06 0 6.12 0 0 Z " fill="#6D567D" transform="translate(48,58)"/>
<path d="M0 0 C0.33 0 0.66 0 1 0 C1.33 4.95 1.66 9.9 2 15 C-2 11 -2 11 -4 8 C-3.67481049 4.63970839 -2.1666009 2.52770105 0 0 Z " fill="#2A183B" transform="translate(28,57)"/>
<path d="M0 0 C0.99 0.33 1.98 0.66 3 1 C2.44854729 6.23880078 1.57077907 10.97350697 0 16 C-1.84647218 12.89424795 -2.18809488 11.00197682 -1.6875 7.4375 C-1.58824219 6.67308594 -1.48898438 5.90867187 -1.38671875 5.12109375 C-1 3 -1 3 0 0 Z " fill="#1B0A34" transform="translate(43,98)"/>
<path d="M0 0 C1 2 1 2 0.875 5.5 C0.91625 6.655 0.9575 7.81 1 9 C4.18762365 11.12508244 6.26512223 11.5020163 10 12 C9.01 12.33 8.02 12.66 7 13 C6.67 13.66 6.34 14.32 6 15 C6 14.34 6 13.68 6 13 C5.05125 13.020625 4.1025 13.04125 3.125 13.0625 C0 13 0 13 -2 12 C-2 8.37 -2 4.74 -2 1 C-1.34 0.67 -0.68 0.34 0 0 Z " fill="#7E5A97" transform="translate(103,54)"/>
<path d="M0 0 C2.64 0 5.28 0 8 0 C8 0.99 8 1.98 8 3 C7.34 3 6.68 3 6 3 C6.33 4.98 6.66 6.96 7 9 C5.68 9 4.36 9 3 9 C2.01 6.03 1.02 3.06 0 0 Z " fill="#1D0C35" transform="translate(92,43)"/>
<path d="M0 0 C2.5 1.1875 2.5 1.1875 5 3 C5.3125 5.6875 5.3125 5.6875 5 8 C3.02 8 1.04 8 -1 8 C-1.66 6.02 -2.32 4.04 -3 2 C-2.01 1.34 -1.02 0.68 0 0 Z " fill="#D196F9" transform="translate(101,74)"/>
<path d="M0 0 C0.33 1.32 0.66 2.64 1 4 C2.98 4 4.96 4 7 4 C7 4.99 7 5.98 7 7 C2.545 7.495 2.545 7.495 -2 8 C-2 5.69 -2 3.38 -2 1 C-1.34 0.67 -0.68 0.34 0 0 Z " fill="#0F071B" transform="translate(98,79)"/>
<path d="M0 0 C3.77300358 1.0197307 4.80206144 1.65872662 6.8125 5.125 C7.204375 6.07375 7.59625 7.0225 8 8 C7.01 8 6.02 8 5 8 C4.67 8.66 4.34 9.32 4 10 C1 5.25 1 5.25 1 3 C0.34 3 -0.32 3 -1 3 C-0.67 2.01 -0.34 1.02 0 0 Z " fill="#2C1349" transform="translate(37,78)"/>
<path d="M0 0 C0.99 0.99 1.98 1.98 3 3 C2.34 4.98 1.68 6.96 1 9 C-0.65 9 -2.3 9 -4 9 C-4.33 8.01 -4.66 7.02 -5 6 C-4.01 6 -3.02 6 -2 6 C-1.855625 5.195625 -1.71125 4.39125 -1.5625 3.5625 C-1 1 -1 1 0 0 Z " fill="#160A27" transform="translate(84,80)"/>
<path d="M0 0 C0.33 0 0.66 0 1 0 C2.33257403 11.52164009 2.33257403 11.52164009 1 17 C0.67 17 0.34 17 0 17 C0 14.69 0 12.38 0 10 C-0.66 10 -1.32 10 -2 10 C-2 7.69 -2 5.38 -2 3 C-1.34 3 -0.68 3 0 3 C0 2.01 0 1.02 0 0 Z " fill="#886A9C" transform="translate(71,63)"/>
<path d="M0 0 C0.33 0 0.66 0 1 0 C1.04898438 1.13179687 1.09796875 2.26359375 1.1484375 3.4296875 C1.22346514 4.91148339 1.29901297 6.393253 1.375 7.875 C1.4059375 8.62136719 1.436875 9.36773437 1.46875 10.13671875 C1.55643831 14.53473188 1.55643831 14.53473188 4 18 C3.67 18.66 3.34 19.32 3 20 C1.0625 19.25 1.0625 19.25 -1 18 C-1.75 15.875 -1.75 15.875 -2 14 C-1.67 14 -1.34 14 -1 14 C-0.67 9.38 -0.34 4.76 0 0 Z " fill="#624E70" transform="translate(32,58)"/>
<path d="M0 0 C2.64 0.33 5.28 0.66 8 1 C8 1.99 8 2.98 8 4 C5.36 4.33 2.72 4.66 0 5 C0 3.35 0 1.7 0 0 Z " fill="#CC93F4" transform="translate(101,66)"/>
<path d="M0 0 C0.33 1.32 0.66 2.64 1 4 C-1.64 4 -4.28 4 -7 4 C-7 4.99 -7 5.98 -7 7 C-8.32 7.33 -9.64 7.66 -11 8 C-10.67 6.35 -10.34 4.7 -10 3 C-6.7 3 -3.4 3 0 3 C0 2.01 0 1.02 0 0 Z " fill="#796D83" transform="translate(119,53)"/>
<path d="M0 0 C1.65 0 3.3 0 5 0 C5.33 1.32 5.66 2.64 6 4 C3.69 4 1.38 4 -1 4 C-0.67 2.68 -0.34 1.36 0 0 Z " fill="#5D5764" transform="translate(77,62)"/>
<path d="M0 0 C1.6415049 3.2830098 0.51888624 6.42545033 0 10 C-0.33 9.01 -0.66 8.02 -1 7 C-3.97 6.505 -3.97 6.505 -7 6 C-4 4 -4 4 -2 4 C-1.34 2.68 -0.68 1.36 0 0 Z " fill="#352247" transform="translate(98,73)"/>
<path d="M0 0 C3.3 0 6.6 0 10 0 C9.67 0.66 9.34 1.32 9 2 C7.329375 2.2165625 7.329375 2.2165625 5.625 2.4375 C2.06882192 2.98932074 1.06625391 3.20448001 -1 6 C-0.67 4.02 -0.34 2.04 0 0 Z " fill="#0A0312" transform="translate(107,76)"/>
<path d="M0 0 C2.31 0.33 4.62 0.66 7 1 C7 2.32 7 3.64 7 5 C5.02 5 3.04 5 1 5 C0.67 3.35 0.34 1.7 0 0 Z " fill="#2A183F" transform="translate(87,51)"/>
<path d="M0 0 C2.52588702 2.36292656 3.88820837 3.66462511 5 7 C3.35 7 1.7 7 0 7 C-0.66 5.02 -1.32 3.04 -2 1 C-1.34 0.67 -0.68 0.34 0 0 Z " fill="#3A185A" transform="translate(40,41)"/>
<path d="M0 0 C2.97 0.495 2.97 0.495 6 1 C6 3.64 6 6.28 6 9 C4.5 7.8125 4.5 7.8125 3 6 C2.8125 3.3125 2.8125 3.3125 3 1 C2.01 0.67 1.02 0.34 0 0 Z " fill="#18092D" transform="translate(46,57)"/>
<path d="M0 0 C1.98 0.66 3.96 1.32 6 2 C6 2.99 6 3.98 6 5 C3.69 5 1.38 5 -1 5 C-0.67 3.35 -0.34 1.7 0 0 Z " fill="#310F53" transform="translate(56,23)"/>
<path d="M0 0 C7.75 1.625 7.75 1.625 10 5 C5.75776898 5.3636198 3.41831915 4.5393228 0 2 C0 1.34 0 0.68 0 0 Z " fill="#3F2756" transform="translate(73,85)"/>
<path d="M0 0 C1.65 0 3.3 0 5 0 C5 1.32 5 2.64 5 4 C3.02 4 1.04 4 -1 4 C-0.67 2.68 -0.34 1.36 0 0 Z " fill="#0A0410" transform="translate(110,67)"/>
<path d="M0 0 C2.64 0 5.28 0 8 0 C8 1.32 8 2.64 8 4 C7.01 4.66 6.02 5.32 5 6 C5.33 5.01 5.66 4.02 6 3 C4.02 2.34 2.04 1.68 0 1 C0 0.67 0 0.34 0 0 Z " fill="#7A628A" transform="translate(24,51)"/>
<path d="M0 0 C1.65 0 3.3 0 5 0 C5 1.32 5 2.64 5 4 C3.35 4.33 1.7 4.66 0 5 C0 3.35 0 1.7 0 0 Z " fill="#272032" transform="translate(58,62)"/>
<path d="M0 0 C2.475 0.99 2.475 0.99 5 2 C4.01 3.485 4.01 3.485 3 5 C2.34 5 1.68 5 1 5 C1 4.34 1 3.68 1 3 C0.34 3 -0.32 3 -1 3 C-0.67 2.01 -0.34 1.02 0 0 Z " fill="#371B53" transform="translate(37,78)"/>
<path d="M0 0 C1.98 0 3.96 0 6 0 C6 0.99 6 1.98 6 3 C4.02 3 2.04 3 0 3 C0 2.01 0 1.02 0 0 Z " fill="#1F083E" transform="translate(73,46)"/>
</svg>
